<svg width="117" height="30" viewBox="0 0 117 30" fill="none" xmlns="http://www.w3.org/2000/svg">
<path d="M12.397 28.3861C4.79738 28.3861 0 23.4318 0 15.4735C0 7.6722 4.77496 2.78516 12.3297 2.78516C18.248 2.78516 22.7091 6.05813 23.6282 10.99H19.4137C18.4273 7.9188 15.8269 6.1478 12.3521 6.1478C7.26332 6.1478 4.21452 9.62254 4.21452 15.4287C4.21452 21.347 7.35299 25.0011 12.4194 25.0011C16.7236 25.0011 19.7051 22.423 19.7724 18.6569V18.2309H12.9126V15.1149H23.8524V17.6481C23.8524 24.3734 19.593 28.3861 12.397 28.3861Z" fill="#F4F4F4"/>
<path d="M44.0259 22.6711C43.4654 25.9665 40.1252 28.3203 35.6865 28.3203C29.9924 28.3203 26.5625 24.7335 26.5625 19.0394C26.5625 13.3677 30.0597 9.60156 35.5296 9.60156C40.9098 9.60156 44.25 13.1436 44.25 18.6135V19.8913H30.5753V20.1154C30.5753 23.2539 32.5929 25.3388 35.7762 25.3388C38.0403 25.3388 39.7217 24.2851 40.2597 22.6935H44.0259V22.6711ZM30.5753 17.2684H40.2597C40.17 14.511 38.2869 12.5607 35.5071 12.5607C32.7274 12.5831 30.777 14.5559 30.5753 17.2684Z" fill="#F4F4F4"/>
<path d="M47.3203 9.91541H51.1089V12.9418H51.1986C52.2522 10.8794 54.3146 9.60156 57.2962 9.60156C61.5779 9.60156 64.0215 12.1348 64.0215 16.282V27.984H60.0311V17.0218C60.0311 14.3093 58.6636 12.8073 55.9063 12.8073C53.1041 12.8073 51.3107 14.668 51.3107 17.4702V27.984H47.3427V9.91541H47.3203Z" fill="#F4F4F4"/>
<path d="M67.6797 5.03495C67.6797 3.75365 68.7109 2.73828 69.9887 2.73828C71.2665 2.73828 72.2753 3.75365 72.2753 5.03495C72.2753 6.29207 71.2665 7.33161 69.9887 7.33161C68.7109 7.33161 67.6797 6.29207 67.6797 5.03495Z" fill="url(#paint0_linear_2025_1586)"/>
<path d="M71.9601 9.91406H67.9922V27.9827H71.9601V9.91406Z" fill="#F4F4F4"/>
<path d="M92.498 28.52L91.6686 27.8475C91.6686 27.8475 89.6734 29.3719 86.5573 28.8787C86.378 28.8563 86.1762 28.8339 86.0193 28.789C85.9521 28.7666 85.8624 28.7666 85.7951 28.7442C84.1586 28.3631 82.9481 27.6457 82.3204 27.018C80.4149 25.0677 79.294 22.131 79.294 20.0686V19.8444H92.9688V18.5666C92.9688 13.0967 89.6061 9.55469 84.2483 9.55469C78.7784 9.55469 75.2812 13.3433 75.2812 18.9925C75.2812 24.6866 79.2268 29.1701 85.9969 29.7082C89.2475 29.9548 93.3947 29.0356 94.6725 28.4752C94.6277 28.52 96.2866 28.0941 92.498 28.52ZM84.2259 12.5587C87.0057 12.5587 88.8888 14.509 88.9784 17.2664H79.294C79.4958 14.5314 81.4461 12.5587 84.2259 12.5587Z" fill="#F4F4F4"/>
<path d="M102.652 18.9169C100.777 19.5733 98.9011 17.9635 99.2762 16.0098C99.5575 14.5719 100.808 13.556 102.277 13.5092C103.277 13.4779 104.621 13.1809 106.372 12.3213C105.528 11.8837 104.231 12.0244 103.496 11.3054C103.23 11.0397 102.84 9.93004 103.59 9.2111C103.027 9.30487 102.355 9.25798 101.417 9.14858C100.917 9.08606 100.355 8.9454 99.8388 8.63281C99.7294 8.97666 99.1043 10.7584 96.838 11.8837C94.478 13.0559 93.509 14.822 93.3839 16.6975C93.3214 17.6197 95.7596 27.7318 87.2729 29.5604C85.8506 29.873 89.8048 29.7011 91.1333 29.5761C92.6806 29.4354 99.2137 29.029 103.762 23.4181C104.715 22.2459 105.559 20.7924 106.356 19.0732C106.716 18.2917 107.013 17.2289 107.153 16.1661C105.903 17.2446 104.575 18.2292 102.652 18.9169Z" fill="url(#paint1_linear_2025_1586)"/>
<path d="M104.889 4.19251C104.889 4.02059 104.889 3.84867 104.874 3.66112C104.811 3.02032 104.608 2.44203 104.295 1.9419V1.92627C103.514 0.660293 102.045 -0.136801 100.45 0.0194919C98.2154 0.238302 96.59 2.22322 96.8088 4.45821C96.8869 5.23968 97.1839 5.943 97.6215 6.52128C98.1685 7.31837 98.9813 8.1311 99.8565 8.66249C100.357 8.95945 100.888 9.13137 101.373 9.22515C102.295 9.4127 103.201 9.50648 103.686 9.36581C105.702 8.80316 105.592 7.67785 105.592 7.67785C105.514 6.80261 105.202 5.39597 104.889 4.19251Z" fill="url(#paint2_linear_2025_1586)"/>
<path d="M113.049 10.0863C111.47 10.0707 109.595 10.5083 107.719 11.618C107.25 11.8993 106.813 12.1338 106.391 12.337C103.187 13.9155 101.702 13.5092 100.483 13.2278C99.7639 13.0559 95.3721 12.4307 94.6688 15.9942C94.2312 18.1823 96.2473 19.9797 99.5295 19.6515C103.359 19.2764 105.328 17.7447 107.188 16.1818C108.704 14.9002 110.157 13.4935 112.471 12.3682C112.658 12.2744 112.846 12.1963 113.033 12.1181C115.456 11.196 116.565 12.4776 116.972 12.0244C116.659 10.9303 115.112 10.1176 113.049 10.0863Z" fill="url(#paint3_linear_2025_1586)"/>
<path opacity="0.66" d="M92.4804 3.64453C91.4333 5.817 90.4955 6.31714 89.9641 6.06707C89.4327 5.817 89.6046 4.89487 89.6046 4.89487C88.9326 7.58311 91.9178 7.19238 93.6682 5.39501C94.5279 4.51977 96.2158 4.31659 96.2158 4.31659" fill="#999999"/>
<path d="M95.2624 2.0026C94.5435 2.3777 93.8558 2.98724 93.4026 3.6593C93.1681 3.98752 91.8553 6.69138 90.4799 6.4882C90.2767 6.45695 90.0579 6.42569 89.9016 6.28502C90.0735 6.41006 90.2767 6.45694 90.4799 6.45694C90.6831 6.45694 90.8862 6.39443 91.0582 6.28502C91.4176 6.09747 91.7146 5.78489 91.9647 5.4723C92.2147 5.14408 92.4335 4.80024 92.6367 4.44077C92.8399 4.08129 93.0118 3.69056 93.2306 3.33109C93.6839 2.61214 94.2778 1.97134 95.028 1.54935C95.4031 1.33054 95.8095 1.17424 96.2158 1.06484C96.6066 0.971063 96.9973 0.924175 97.4193 0.939804C97.6381 0.689735 97.81 0.58033 97.81 0.58033C95.2624 -0.373057 93.4963 1.48683 92.4648 3.6593C91.4176 5.83177 90.4799 6.33191 89.9485 6.08184C89.4171 5.83177 89.589 4.90964 89.589 4.90964C88.9169 7.59788 91.9021 7.20715 93.6526 5.40978C94.5122 4.53454 96.2002 4.33136 96.2002 4.33136C96.294 3.0185 96.6534 2.12763 97.0129 1.53372C96.8097 1.54935 96.5909 1.56498 96.3877 1.61186C95.997 1.67438 95.6219 1.81504 95.2624 2.0026Z" fill="url(#paint4_linear_2025_1586)"/>
<path d="M96.2439 1.05082C95.8219 1.16022 95.4156 1.31652 95.0561 1.53533C94.3059 1.97295 93.712 2.61375 93.2587 3.31707C93.0243 3.67654 92.8524 4.06727 92.6648 4.42675C92.4616 4.78622 92.2428 5.1457 91.9928 5.45828C91.7427 5.77087 91.4457 6.08345 91.0863 6.271C90.8987 6.36478 90.7112 6.4273 90.508 6.44293C90.3048 6.44293 90.086 6.39604 89.9297 6.271C90.086 6.39604 90.3048 6.44293 90.508 6.47419C91.899 6.67737 93.1962 3.98913 93.4306 3.64528C93.8995 2.97322 94.5872 2.36368 95.2905 1.98858C95.65 1.80103 96.0251 1.66036 96.4158 1.58222C96.619 1.53533 96.8378 1.5197 97.041 1.50407C97.1973 1.254 97.338 1.06645 97.4786 0.910156C97.0254 0.910156 96.6347 0.957044 96.2439 1.05082Z" fill="url(#paint5_linear_2025_1586)"/>
<path d="M96.2439 1.05082C95.8219 1.16022 95.4156 1.31652 95.0561 1.53533C94.3059 1.97295 93.712 2.61375 93.2587 3.31707C93.0243 3.67654 92.8524 4.06727 92.6648 4.42675C92.4616 4.78622 92.2428 5.1457 91.9928 5.45828C91.7427 5.77087 91.4457 6.08345 91.0863 6.271C90.8987 6.36478 90.7112 6.4273 90.508 6.44293C90.3048 6.44293 90.086 6.39604 89.9297 6.271C90.086 6.39604 90.3048 6.44293 90.508 6.47419C91.899 6.67737 93.1962 3.98913 93.4306 3.64528C93.8995 2.97322 94.5872 2.36368 95.2905 1.98858C95.65 1.80103 96.0251 1.66036 96.4158 1.58222C96.619 1.53533 96.8378 1.5197 97.041 1.50407C97.1973 1.254 97.338 1.06645 97.4786 0.910156C97.0254 0.910156 96.6347 0.957044 96.2439 1.05082Z" fill="url(#paint6_linear_2025_1586)"/>
<path d="M95.2917 16.3063C98.2769 18.1037 103.341 17.4785 105.904 15.5718C108.983 13.5243 112.296 10.164 116.329 11.7895C113.515 10.7579 110.937 12.3678 108.842 14.1339C107.311 15.3061 105.466 16.9159 103.778 17.8224C102.294 18.5882 100.84 18.9164 98.9646 19.0102C98.2769 19.0415 96.0575 18.7132 95.448 17.5254C95.323 17.3222 95.1041 16.1657 95.2917 16.3063Z" fill="url(#paint7_linear_2025_1586)"/>
<path opacity="0.72" d="M103.024 3.33324C104.869 3.45828 103.321 0.379306 100.774 0.348048C99.5704 0.332418 98.5076 0.785668 97.9293 1.5515C97.4761 2.14542 97.4448 2.91125 98.2263 3.13006C99.2266 3.42702 99.2735 3.0988 103.024 3.33324Z" fill="url(#paint8_linear_2025_1586)"/>
<path d="M99.4767 1.95771C99.4924 2.55162 100.493 3.05176 101.712 3.08302C102.931 3.09865 103.9 2.6454 103.884 2.03586C103.869 1.44194 102.868 0.941807 101.649 0.910548C100.446 0.894919 99.4611 1.34817 99.4767 1.95771Z" fill="url(#paint9_radial_2025_1586)"/>
<path d="M104.811 4.01953C104.311 4.08205 102.717 4.2696 101.232 4.25397C101.107 4.25397 100.998 4.39463 101.029 4.51967C101.404 5.66061 101.326 6.48896 101.326 6.48896C101.341 6.59836 101.435 6.66088 101.529 6.67651C103.795 6.94221 105.155 6.4577 105.155 6.4577C105.296 6.4577 105.421 6.31704 105.405 6.16074C105.358 5.67624 105.139 4.72285 105.014 4.16019C104.999 4.08205 104.905 4.01953 104.811 4.01953Z" fill="url(#paint10_linear_2025_1586)"/>
<path d="M104.407 4.67578C104.422 4.98837 104.172 5.25407 103.844 5.26969C103.516 5.28532 103.234 5.05088 103.219 4.7383" fill="#2AF6FF"/>
<path d="M99.4485 6.99047C99.1359 6.99047 98.8233 6.88106 98.5889 6.66225C98.3232 6.42781 98.1669 6.11523 98.1512 5.75575C98.1044 5.03681 98.6514 4.41163 99.386 4.36475C99.7298 4.34912 100.074 4.45852 100.339 4.69296C100.605 4.9274 100.761 5.23999 100.777 5.59946C100.793 5.94331 100.683 6.28715 100.449 6.55285C100.214 6.81855 99.9017 6.97484 99.5422 6.99047C99.511 6.99047 99.4797 6.99047 99.4485 6.99047ZM99.4485 4.67733C99.4328 4.67733 99.4016 4.67733 99.386 4.67733C98.8389 4.70859 98.4169 5.1931 98.4482 5.74012C98.4638 6.00582 98.5889 6.25589 98.792 6.42781C98.9952 6.59974 99.2453 6.69351 99.511 6.67788C100.058 6.64662 100.48 6.16212 100.449 5.61509C100.433 5.34939 100.308 5.09932 100.105 4.9274C99.933 4.77111 99.6985 4.67733 99.4485 4.67733Z" fill="url(#paint11_linear_2025_1586)"/>
<path d="M99.4477 6.42853C99.2601 6.42853 99.0882 6.36602 98.9632 6.24098C98.8225 6.11595 98.7287 5.9284 98.7131 5.72522C98.6818 5.31885 98.9944 4.95938 99.4008 4.94375C99.604 4.92812 99.7915 4.99064 99.9322 5.1313C100.073 5.25634 100.167 5.44389 100.182 5.64707C100.214 6.05343 99.9009 6.4129 99.4946 6.42853C99.4789 6.42853 99.4633 6.42853 99.4477 6.42853ZM99.4477 5.25634C99.432 5.25634 99.432 5.25634 99.4164 5.25634C99.182 5.27197 98.9944 5.47515 99.01 5.70959C99.0257 5.94403 99.2289 6.13158 99.4633 6.11595C99.6977 6.10032 99.8853 5.89714 99.8697 5.6627C99.8697 5.55329 99.8071 5.44389 99.729 5.36574C99.6665 5.28759 99.5571 5.25634 99.4477 5.25634Z" fill="url(#paint12_linear_2025_1586)"/>
<defs>
<linearGradient id="paint0_linear_2025_1586" x1="71.9342" y1="8.79672" x2="65.7736" y2="-2.1739" gradientUnits="userSpaceOnUse">
<stop offset="0.0849874" stop-color="#FF539B"/>
<stop offset="0.564483" stop-color="#FFCB43"/>
</linearGradient>
<linearGradient id="paint1_linear_2025_1586" x1="86.0375" y1="20.0509" x2="107.351" y2="17.9606" gradientUnits="userSpaceOnUse">
<stop offset="0.00028409" stop-color="#44FFFF"/>
<stop offset="0.9996" stop-color="#0059CF"/>
</linearGradient>
<linearGradient id="paint2_linear_2025_1586" x1="106.306" y1="2.50479" x2="96.8213" y2="7.18118" gradientUnits="userSpaceOnUse">
<stop offset="0.00028409" stop-color="#44FFFF"/>
<stop offset="0.9996" stop-color="#0059CF"/>
</linearGradient>
<linearGradient id="paint3_linear_2025_1586" x1="94.5326" y1="15.9906" x2="117.132" y2="13.7743" gradientUnits="userSpaceOnUse">
<stop offset="0.00028409" stop-color="#44FFFF"/>
<stop offset="0.9996" stop-color="#0059CF"/>
</linearGradient>
<linearGradient id="paint4_linear_2025_1586" x1="92.2801" y1="0.576191" x2="95.0441" y2="5.94784" gradientUnits="userSpaceOnUse">
<stop offset="0.00028409" stop-color="#44FFFF"/>
<stop offset="0.9996" stop-color="#0059CF"/>
</linearGradient>
<linearGradient id="paint5_linear_2025_1586" x1="92.1437" y1="0.646251" x2="94.9078" y2="6.01806" gradientUnits="userSpaceOnUse">
<stop offset="0.00028409" stop-color="#44FFFF"/>
<stop offset="0.9996" stop-color="#0059CF"/>
</linearGradient>
<linearGradient id="paint6_linear_2025_1586" x1="91.1965" y1="0.752098" x2="101.42" y2="13.8649" gradientUnits="userSpaceOnUse">
<stop offset="0.1046" stop-color="#44FFFF"/>
<stop offset="0.1899" stop-color="#3DEDFA"/>
<stop offset="0.3606" stop-color="#2ABFEC"/>
<stop offset="0.5986" stop-color="#0C75D7"/>
<stop offset="0.6837" stop-color="#0059CF"/>
</linearGradient>
<linearGradient id="paint7_linear_2025_1586" x1="100.852" y1="8.7517" x2="111.199" y2="20.9702" gradientUnits="userSpaceOnUse">
<stop offset="0.00028409" stop-color="#44FFFF"/>
<stop offset="0.9996" stop-color="#0059CF"/>
</linearGradient>
<linearGradient id="paint8_linear_2025_1586" x1="101.604" y1="-0.546682" x2="100.25" y2="5.5528" gradientUnits="userSpaceOnUse">
<stop offset="0.00028409" stop-color="#B9FCFF"/>
<stop offset="0.9996" stop-color="#5DF2FC"/>
</linearGradient>
<radialGradient id="paint9_radial_2025_1586" cx="0" cy="0" r="1" gradientUnits="userSpaceOnUse" gradientTransform="translate(101.685 1.98906) rotate(-178.986) scale(2.20593 1.07863)">
<stop stop-color="white"/>
<stop offset="1" stop-color="#5DF2FC" stop-opacity="0"/>
</radialGradient>
<linearGradient id="paint10_linear_2025_1586" x1="105.211" y1="4.93522" x2="101.889" y2="5.50491" gradientUnits="userSpaceOnUse">
<stop offset="0.020202" stop-color="#45108A"/>
<stop offset="0.2929" stop-color="#3D065F"/>
<stop offset="1" stop-color="#10054D"/>
</linearGradient>
<linearGradient id="paint11_linear_2025_1586" x1="100.76" y1="5.60509" x2="98.1455" y2="5.7654" gradientUnits="userSpaceOnUse">
<stop offset="0.020202" stop-color="#45108A"/>
<stop offset="0.2929" stop-color="#3D065F"/>
<stop offset="1" stop-color="#10054D"/>
</linearGradient>
<linearGradient id="paint12_linear_2025_1586" x1="100.191" y1="5.64062" x2="98.7123" y2="5.73131" gradientUnits="userSpaceOnUse">
<stop offset="0.020202" stop-color="#45108A"/>
<stop offset="0.2929" stop-color="#3D065F"/>
<stop offset="1" stop-color="#10054D"/>
</linearGradient>
</defs>
</svg>
