<svg width="13" height="10" viewBox="0 0 13 10" fill="none" xmlns="http://www.w3.org/2000/svg">
<path d="M3.68444 6.53857L4.79077 7.23766C4.72848 7.49809 4.72717 7.7693 4.78694 8.03021C4.86584 8.37637 5.04582 8.69131 5.30412 8.93521C5.56242 9.17911 5.88744 9.34101 6.23807 9.40044C6.58871 9.45987 6.94922 9.41416 7.27401 9.26909C7.5988 9.12402 7.87328 8.88611 8.06275 8.58543C8.25222 8.28476 8.34816 7.93484 8.33845 7.57991C8.32873 7.22498 8.21379 6.88099 8.00816 6.59144C7.80254 6.30188 7.51546 6.07977 7.18323 5.95319C6.85101 5.82661 6.48855 5.80124 6.14171 5.8803C5.88225 5.93986 5.63991 6.05809 5.43336 6.22586L4.32702 5.52678C4.26022 5.48448 4.18567 5.45582 4.10769 5.44244C4.0297 5.42906 3.94982 5.43122 3.87265 5.44881C3.79548 5.4664 3.72255 5.49906 3.65807 5.54492C3.59358 5.59077 3.53882 5.64891 3.49694 5.71598C3.41298 5.8501 3.38557 6.01189 3.4207 6.16602C3.45583 6.32015 3.55065 6.45408 3.68444 6.53857ZM7.12519 7.49726C7.16046 7.65199 7.13269 7.81441 7.048 7.94881C6.96331 8.08321 6.82864 8.17856 6.6736 8.2139C6.51857 8.24923 6.35587 8.22166 6.22131 8.13724C6.08674 8.05282 5.99133 7.91846 5.95606 7.76374C5.92045 7.61172 5.94579 7.45178 6.02666 7.31805C6.06876 7.24973 6.12419 7.19053 6.18963 7.14399C6.25508 7.09744 6.32922 7.06449 6.40765 7.0471C6.56269 7.01176 6.72538 7.03934 6.85995 7.12376C6.99451 7.20818 7.08992 7.34253 7.12519 7.49726Z" fill="white"/>
<path d="M6.45002 0C5.31779 2.87627e-05 4.20551 0.298088 3.22498 0.864222C2.24445 1.43035 1.43022 2.24461 0.864119 3.22516C0.298017 4.20571 -7.19086e-06 5.31799 1.3013e-10 6.45022C7.19112e-06 7.58245 0.298045 8.69473 0.86416 9.67527C0.949695 9.8241 1.09085 9.93285 1.25657 9.97761C1.42229 10.0224 1.599 9.99946 1.74783 9.91393C1.89666 9.82839 2.00542 9.68724 2.05018 9.52151C2.09493 9.35579 2.07203 9.17908 1.98649 9.03025C1.52946 8.24728 1.28902 7.35678 1.28987 6.45018C1.29018 5.65886 1.47248 4.87821 1.82267 4.1686C2.17287 3.45898 2.68157 2.83942 3.30945 2.35781C3.93734 1.8762 4.66757 1.54544 5.4437 1.39112C6.21982 1.2368 7.02105 1.26305 7.78541 1.46783C8.54977 1.67262 9.25679 2.05045 9.85181 2.57213C10.4468 3.0938 10.9139 3.74533 11.2169 4.47634C11.5199 5.20735 11.6507 5.99826 11.5992 6.7879C11.5477 7.57755 11.3153 8.34477 10.92 9.03025C10.8773 9.10387 10.8497 9.1852 10.8386 9.26955C10.8275 9.3539 10.8332 9.43962 10.8554 9.52176C10.8776 9.60389 10.9158 9.68083 10.9678 9.74813C11.0199 9.81544 11.0847 9.87179 11.1586 9.91393C11.3068 9.99802 11.4821 10.0201 11.6465 9.97541C11.8108 9.9307 11.9508 9.8228 12.0359 9.67527C12.602 8.69473 12.9 7.58245 12.9 6.45022C12.9 5.31799 12.602 4.20571 12.0359 3.22516C11.4698 2.24461 10.6556 1.43035 9.67505 0.864222C8.69452 0.298088 7.58224 2.87627e-05 6.45002 0Z" fill="white"/>
</svg>
