<?xml version="1.0" standalone="no"?>
<!DOCTYPE svg PUBLIC "-//W3C//DTD SVG 1.1//EN" "http://www.w3.org/Graphics/SVG/1.1/DTD/svg11.dtd" >
<svg xmlns="http://www.w3.org/2000/svg">
<metadata>Generated by IcoMoon</metadata>
<defs>
<font id="getgenie" horiz-adv-x="1024">
<font-face units-per-em="1024" ascent="960" descent="-64" />
<missing-glyph horiz-adv-x="1024" />
<glyph unicode="&#x20;" horiz-adv-x="512" d="" />
<glyph unicode="&#xe900;" glyph-name="edit" d="M0 149.307v-213.307h213.304l629.105 629.104-213.304 213.304-629.104-629.101zM1007.36 730.059c22.184 22.183 22.184 58.018 0 80.202l-133.098 133.102c-22.184 22.184-58.017 22.184-80.201 0l-104.094-104.092 213.304-213.304 104.090 104.093z" />
<glyph unicode="&#xe901;" glyph-name="back" d="M608.996 578.56l-40.107 40.107-170.667-170.667 170.667-170.667 40.107 40.107-130.276 130.56 130.276 130.56z" />
<glyph unicode="&#xe902;" glyph-name="back_1" d="M802.987 839.68l-120.32 120.32-512-512 512-512 120.32 120.32-390.827 391.68 390.827 391.68z" />
<glyph unicode="&#xe903;" glyph-name="content-shorten" d="M113.778 413.867h796.442v113.778h-796.442v-113.778zM0 186.311h796.447v113.777h-796.447v-113.777zM227.555 755.2v-113.778h796.445v113.778h-796.445z" />
<glyph unicode="&#xe904;" glyph-name="product-descriptions" d="M645.12 816.64v143.36h-645.12v-143.36h645.12zM1003.52 529.92v143.36h-1003.52v-143.36h1003.52zM645.12 243.2v143.36h-645.12v-143.36h645.12zM1003.52-43.52v143.36h-1003.52v-143.36h1003.52z" />
<glyph unicode="&#xe905;" glyph-name="section-tile-generator" d="M766.356 938.635c88.251 32.091 171.912-67.171 109.827-146.992l-0.379-0.489-267.993-325.714 157.684-157.685 1.313-1.572c40.84-49.013 25.986-125.633-34.985-151.763l-0.386-0.169-464.757-194.018c-47.367-21.118-92.336-0.47-114.665 32.491-21.654 31.967-25.401 80.992 9.76 116.917l322.554 351.501-154.622 154.622c-24.482 24.482-29.357 58.233-23.523 85.457 5.899 27.527 24.172 55.799 55.742 69.329l0.453 0.194 403.975 167.892zM543.62 529.63l261.491 317.815c0.807 1.093 1.12 1.846 1.241 2.209 0.139 0.405 0.157 0.655 0.151 0.811 0 0.337-0.133 1.1-0.843 2.032-0.699 0.926-1.632 1.556-2.584 1.85-0.614 0.19-2.193 0.56-5.162-0.392l-400.461-166.484c-0.178-0.088-0.572-0.332-1.117-1.048-0.701-0.92-1.423-2.361-1.803-4.134-0.332-1.549-0.275-2.745-0.165-3.406l149.253-149.253zM548.278 397.193l-321.834-350.656c-0.316-0.313-0.491-0.542-0.58-0.669 0.019-0.355 0.179-1.325 0.956-2.47 0.507-0.747 0.96-1.114 1.192-1.271 0.302 0.054 0.961 0.211 2.005 0.681l0.64 0.295 465.677 194.409c1.491 0.669 2.514 1.807 2.959 3.807 0.404 1.813 0.182 3.939-1.163 6.018l-149.853 149.855z" />
<glyph unicode="&#xe906;" glyph-name="arrow" horiz-adv-x="896" d="M70.774 722.867l564.814 112.963c34.66 6.932 68.378-15.546 75.309-50.206l112.964-564.814c6.931-34.66-15.547-68.376-50.207-75.309-34.66-6.931-68.376 15.547-75.308 50.205l-82.661 413.306-426.294-639.439-106.503 71.002 426.294 639.439-413.306-82.661c-34.66-6.931-68.377 15.547-75.309 50.207s15.546 68.376 50.206 75.308z" />
<glyph unicode="&#xe907;" glyph-name="add" d="M960.35 402.489h-411.578v-418.134h-137.193v418.134h-411.578v139.377h411.578v418.134h137.193v-418.134h411.578v-139.377z" />
<glyph unicode="&#xe908;" glyph-name="box" d="M910.225 846.223v-796.448h-796.448v796.448h796.448zM910.225 960h-796.448c-62.577 0-113.777-51.2-113.777-113.777v-796.448c0-62.575 51.2-113.775 113.777-113.775h796.448c62.575 0 113.775 51.2 113.775 113.775v796.448c0 62.577-51.2 113.777-113.775 113.777z" />
<glyph unicode="&#xe909;" glyph-name="chevron_dwon" horiz-adv-x="1536" d="M1355.52 960l-587.52-586.24-587.52 586.24-180.48-180.48 768-768 768 768-180.48 180.48z" />
<glyph unicode="&#xe90a;" glyph-name="chevron_up" horiz-adv-x="1664" d="M1412.006 11.5l-612.006 586.24-612-586.24-188 180.48 800 768 800-768-187.994-180.48z" />
<glyph unicode="&#xe90b;" glyph-name="close" d="M1024 856.869l-103.131 103.131-408.869-408.869-408.869 408.869-103.131-103.131 408.869-408.869-408.869-408.869 103.131-103.131 408.869 408.869 408.869-408.869 103.131 103.131-408.869 408.869 408.869 408.869z" />
<glyph unicode="&#xe90c;" glyph-name="more" horiz-adv-x="279" d="M124.121 711.757c68.267 0 124.122 55.855 124.122 124.122s-55.855 124.121-124.122 124.121c-68.266 0-124.121-55.855-124.121-124.121s55.855-124.122 124.121-124.122zM124.121 587.636c-68.266 0-124.121-55.855-124.121-124.121s55.855-124.122 124.121-124.122c68.267 0 124.122 55.855 124.122 124.122s-55.855 124.121-124.122 124.121zM124.121 215.273c-68.266 0-124.121-55.855-124.121-124.121 0-68.27 55.855-124.125 124.121-124.125s124.122 55.855 124.122 124.125c0 68.266-55.855 124.121-124.122 124.121z" />
<glyph unicode="&#xe90d;" glyph-name="copy" horiz-adv-x="910" d="M797.752 712.924c-1.209 1.142-3.486 3.162-6.676 6.124-5.304 4.953-11.229 10.39-17.629 16.333-18.257 16.934-36.696 33.83-54.133 49.647-1.962 1.772-1.962 1.772-3.942 3.553-23.248 21.057-42.647 38.209-57 50.315-8.363 7.085-14.972 12.371-19.829 15.876-3.209 2.324-5.838 3.99-8.409 5.219-3.238 1.533-6.267 2.495-10.534 2.409-11.438-0.219-20.599-9.438-20.599-20.991v-184.771h164.228v-574.878h-513.318c-34.067 0-61.523 27.904-61.523 61.916v677.18h348.966c11.352 0 20.533 9.438 20.533 20.771s-9.2 20.771-20.553 20.771h-390.485v-655.969h-50.657c-31.81 0-57.561 25.17-57.561 56.331v659.554h547.109c31.876 0 57.706-25.256 57.706-56.42l-0.010-3.486h38.656v3.486c0 51.98-43.228 94.106-96.361 94.106l-585.729-0.010v-697.222c0-51.97 43.125-94.037 96.21-94.037h50.657v-25.039c0-56.695 46.353-102.485 103.085-102.485h553.887v656.969h0.41c-0.019 4.82-2.172 10.733-6.486 14.781l-0.010-0.033zM639.58 698.123v102.475c13.515-11.094 29.267-25.475 48.009-42.456 1.943-1.772 2.066-1.772 4.029-3.553 17.304-15.705 35.706-32.361 53.867-49.2 2.8-2.562 5.533-5.324 8.124-7.267l-114.028 0.001zM692.323 570.666h-395.752c-10.628 0-19.238-8.428-19.238-18.837 0-10.39 8.599-18.838 19.238-18.838h395.752c10.629 0 19.238 8.448 19.238 18.838-0.009 10.399-8.608 18.837-19.238 18.837zM692.323 457.778h-395.752c-10.628 0-19.238-8.429-19.238-18.838 0-10.39 8.599-18.838 19.238-18.838h395.752c10.629 0 19.238 8.429 19.238 18.838-0.009 10.41-8.608 18.838-19.238 18.838zM692.323 326.223h-395.752c-10.628 0-19.238-8.429-19.238-18.839s8.599-18.838 19.238-18.838h395.752c10.629 0 19.238 8.409 19.238 18.838-0.009 10.4-8.608 18.839-19.238 18.839z" />
<glyph unicode="&#xe90e;" glyph-name="add1" d="M1024 374.857h-438.857v-438.857h-146.286v438.857h-438.857v146.286h438.857v438.857h146.286v-438.857h438.857v-146.286z" />
<glyph unicode="&#xe90f;" glyph-name="competition" horiz-adv-x="956" d="M265.054 660.933c-5.794 0.076-11.227-4.456-11.504-10.558-0.031-0.739-3.278-74.519-3.278-111.587l0.023-9.742c0.13-40.045 0.408-123.492-14.529-153.386-17.068-34.135-33.513-53.096-71.472-54.267-6.087-0.2-10.88-5.771-10.689-11.874 0.169-5.948 5.071-11.665 11.004-11.665h0.339c48.417 0 71.21 28.548 90.541 67.201 17.283 34.596 17.014 119.25 16.861 164.198l-0.023 9.596c0 36.566 3.224 109.84 3.255 110.579 0.277 6.095-4.448 11.235-10.527 11.504v0zM928.884 426.607c-2.451 2.871-61.365 70.395-177.944 73.757-96.143 2.701-156.094-37.906-175.878-53.882-23.639 16.66-56.043 30.065-100.545 30.88-54.019 1.17-95.481-20.322-124.869-44.477 4.601 34.882 7.202 83.654 4.332 116.073-1.632 18.53-4.525 41.038-7.326 62.792-3.901 30.396-7.941 61.83-8.311 80.821-0.285 14.29 2.755 30.65 6.11 44.147 0.508-5.209 2.055-13.082 6.741-19.384 7.88-10.581 22.363-11.35 26.21-11.35 0.416 0 0.715 0.008 0.862 0.008h85.716c1.708 0 15.721 0.077 26.163 11.25 6.726 7.195 8.118 17.353 8.403 21.855 0.046 0 0.061-0.008 0.1-0.008h10.119c1.238 0 12.319 0.739 21.939 8.757 9.219 7.679 11.381 18.861 11.904 24.371 0.054 0 0.108-0.031 0.162-0.031h9.003c0.485-0.031 1.116-0.069 1.855-0.069 4.725 0 14.328 1.139 23.586 9.127 10.381 8.972 9.873 24.939 9.688 27.317v105.985c0.354 3.74 1.016 17.583-6.965 28.487-5.294 7.226-12.143 14.759-25.27 16.529-0.3 0.008-0.562 0.162-0.862 0.162h-0.254c-2.37 0.246-4.864 0.362-7.664 0.208-0.3-0.008-0.554-0.177-0.831-0.208h-226.997c-5.294 0.477-35.39 2.055-59.761-19.369-24.039-21.124-25.824-41.655-27.709-63.409l-0.169-1.931c-1.862-21.569-3.809-43.871-8.249-58.998-4.663-15.883-18.884-64.238-49.765-106.531-17.068-23.377-35.544-49.85-51.849-73.219-14.036-20.123-27.301-39.121-36.798-52.026-21.701-29.456-52.834-90.909-70.303-151.363-14.021-48.441-17.099-106.6-9.18-172.856 5.502-45.991 29.102-105.609 30.103-108.121l1.416-3.557 3.309-1.911c1.901-1.099 47.448-27.068 151.964-54.368 123.106-95.055 248.47-122.088 351.242-122.088 134.163 0.007 229.812 46.080 231.491 46.913 5.448 2.703 7.68 9.312 4.977 14.78-2.697 5.461-9.318 7.687-14.773 4.99-2.847-1.413-288.008-138.26-561.2 74.22l-1.801 1.399-2.208 0.58c-87.239 22.624-133.218 44.646-145.353 50.913-5.186 13.612-22.847 61.966-27.256 98.864-7.58 63.31-4.732 118.529 8.465 164.108 16.591 57.351 46.84 117.212 66.885 144.407 9.673 13.135 23.009 32.257 37.13 52.489 16.237 23.263 34.651 49.641 51.573 72.835 33.15 45.393 48.179 96.52 53.12 113.317 5.063 17.245 7.095 40.662 9.058 63.308l0.169 1.916c1.916 22 3.686 34.143 20.3 48.74 18.7 16.429 43.17 13.99 43.355 13.959l236.098-0.054c4.279-0.739 6.433-3.055 9.819-7.664 3.032-4.148 3.009-11.343 2.778-13.459l-0.092-0.708 0.023-108.024c0.231-3.34-0.731-8.727-2.062-9.873-4.702-4.048-9.188-3.77-9.064-3.794l-10.958 0.108v97.165c0.4 3.717 0.993 15.729-6.695 24.394-9.080 10.219-18.653 10.050-29.764 9.927-6.102-0.085-10.966-5.086-10.881-11.189s4.74-10.719 11.189-10.881c10.557 0.177 11.011-0.308 12.974-2.524 1.254-1.416 1.531-5.317 1.254-7.372l-0.139-118.382c-0.008-1.993-0.785-7.803-4.14-10.581-3.794-3.163-8.518-3.632-8.319-3.656h-9.611l-0.023 88.378c0.146 1.832 0.985 18.184-9.888 28.371-8.219 7.726-19.76 11.497-34.196 11.327-6.087-0.085-10.966-5.087-10.881-11.189s5.517-11.065 11.189-10.88c8.503 0.208 14.882-1.678 18.799-5.348 2.54-2.386 3.109-8.403 2.947-11.497v-109.155c-0.054-2.57-1-7.202-2.54-8.849-3.863-4.116-9.796-4.255-9.873-4.255h-86.347c-2.801 0-7.756 0.892-8.926 2.447-2.109 2.832-2.693 8.673-2.647 11.343v17.914c17.983 0.070 34.628 0.2 44.363 0.277 0.585-5.548 5.102-9.911 10.812-9.911 6.087 0 11.035 4.94 11.035 11.035v33.097c0 6.087-4.94 11.035-11.035 11.035-6.087 0-11.035-4.94-11.035-11.035v-12.143c-13.89-0.123-41.922-0.33-67.624-0.33-10.835 0-18.976 2.77-24.193 8.241-7.995 8.372-7.487 21.085-7.472 21.808l0.008 37.575c0 6.087-4.94 11.035-11.035 11.035-6.087 0-11.035-4.94-11.035-11.035l0.023-36.897c-0.054-0.892-1.178-22.054 13.328-37.474 6.694-7.126 15.49-11.635 26.009-13.789-4.786-15.283-12.597-44.186-12.112-69.102 0.4-20.176 4.325-50.787 8.495-83.199 2.755-21.547 5.625-43.831 7.226-61.923 3.655-41.292-2.547-116.836-9.634-140.544-17.144-19.484-26.070-35.79-26.986-37.498-2.878-5.363-0.87-12.058 4.502-14.936 1.654-0.892 3.455-1.315 5.209-1.315 3.925 0 7.741 2.093 9.727 5.817 0.531 0.985 54.174 98.914 159.274 96.758 86.964-1.601 120.675-56.082 135.079-79.352 2.447-3.947 4.425-7.095 6.002-9.134 3.74-4.809 10.658-5.694 15.475-1.978 4.817 3.732 5.702 10.658 1.978 15.475-1.247 1.608-2.755 4.116-4.702 7.233-6.341 10.258-17.244 27.757-35.244 44.602 20.515 15.39 74.511 48.433 157.615 46.156 106.353-3.071 161.253-65.416 161.785-66.038 2.171-2.547 5.291-3.871 8.397-3.871 2.54 0 5.086 0.862 7.154 2.639 4.649 3.971 5.188 10.927 1.242 15.575l-0.014-0.003zM610.046 161.963c-167.568-90.754-284.875 34.529-289.8 39.916-4.101 4.478-11.073 4.82-15.574 0.71-4.502-4.096-4.833-11.052-0.739-15.565 0.97-1.072 74.003-79.565 186.383-79.565 39.107 0 82.984 9.516 130.255 35.116 5.348 2.901 7.349 9.585 4.433 14.95-2.925 5.352-9.619 7.339-14.967 4.437h0.010z" />
<glyph unicode="&#xe910;" glyph-name="cpc" horiz-adv-x="878" d="M463.991 833.636v74.936h94.637v51.428h-239.527l0.007-51.428h94.645v-74.936c-114.030-6.695-221.024-58.625-298.252-144.763-77.223-86.137-118.594-199.698-115.32-316.548 3.267-116.855 50.926-227.803 132.833-309.277 81.914-81.467 191.626-127.049 305.843-127.049s223.931 45.583 305.847 127.049c81.913 81.474 129.558 192.426 132.827 309.277 3.277 116.856-38.093 230.412-115.317 316.548-77.223 86.137-184.214 138.067-298.252 144.763h0.029zM438.872-12.551c-76.859 0-152 23.325-215.909 67.028-63.909 43.71-113.72 105.83-143.138 178.512s-37.115 152.662-22.118 229.824c14.989 77.16 52.007 148.035 106.353 203.666 54.347 55.625 123.592 93.513 198.984 108.863 75.387 15.348 153.529 7.469 224.541-22.632 71.011-30.103 131.712-81.086 174.411-146.499 42.708-65.413 65.499-142.316 65.499-220.989-0.124-105.453-41.099-206.564-113.947-281.133-72.856-74.569-171.63-116.517-274.668-116.641h-0.007zM739.716 865.456l35.372 38.972 102.524-112.97-35.372-38.972-102.524 112.97zM466.734 594.286h-55.772v-54.731h-73.344l-0.023-103.395v-51.525h0.023v-0.18l146.749 0.122v-49.706l-146.749 0.122-0.047-51.525 66.011-0.050v-54.846h55.786v54.795l80.731-0.065v152.856h-146.749v51.871h146.771v51.525h-73.39l0.003 54.733z" />
<glyph unicode="&#xe911;" glyph-name="done" horiz-adv-x="1303" d="M1291.311 828.35l-806.797-806.79-484.514 430.674 123.693 139.154 353.304-314.049 682.664 682.661 131.649-131.65z" />
<glyph unicode="&#xe912;" glyph-name="search" d="M727.273 320h-45.964l-16.291 15.709c57.018 66.327 91.345 152.436 91.345 246.109 0 208.873-169.309 378.182-378.182 378.182s-378.182-169.309-378.182-378.182c0-208.873 169.309-378.182 378.182-378.182 93.673 0 179.782 34.327 246.109 91.345l15.709-16.291v-45.964l290.909-290.332 86.696 86.696-290.332 290.909zM378.182 320c-144.873 0-261.818 116.945-261.818 261.818s116.945 261.818 261.818 261.818c144.873 0 261.818-116.945 261.818-261.818s-116.945-261.818-261.818-261.818z" />
<glyph unicode="&#xe913;" glyph-name="delete" horiz-adv-x="853" d="M56.889 49.775c0-62.575 51.2-113.775 113.778-113.775h455.111c62.578 0 113.778 51.2 113.778 113.775v682.669h-682.667v-682.669zM170.667 618.667h455.111v-568.892h-455.111v568.892zM597.333 903.111l-56.889 56.889h-284.444l-56.889-56.889h-199.111v-113.778h796.444v113.778h-199.111z" />
<glyph unicode="&#xe914;" glyph-name="mini_1" horiz-adv-x="1331" d="M732.212 514.49l-55.167-122.128c-27.296 2.614-54.818-1.107-80.427-10.877-33.982-12.921-63.362-35.65-84.424-65.31s-32.86-64.922-33.903-101.324c-1.043-36.403 8.716-72.312 28.044-103.186s47.356-55.328 80.54-70.268c33.184-14.94 70.032-19.696 105.887-13.665 35.855 6.030 69.106 22.575 95.545 47.543 26.441 24.968 44.885 57.238 52.999 92.727s5.535 72.606-7.413 106.656c-9.728 25.465-25.162 48.359-45.111 66.92l55.168 122.129c3.339 7.376 5.187 15.343 5.435 23.441s-1.107 16.168-3.987 23.743c-2.881 7.577-7.229 14.508-12.796 20.395s-12.241 10.614-19.637 13.908c-14.795 6.608-31.591 7.088-46.722 1.334-15.131-5.753-27.364-17.272-34.032-32.040zM683.9 151.941c-15.19-5.775-32.056-5.268-46.889 1.409-14.833 6.679-26.416 18.981-32.204 34.201s-5.303 32.11 1.346 46.956 18.916 26.431 34.106 32.207c14.909 5.772 31.489 5.476 46.2-0.824 7.527-3.298 14.318-8.077 19.968-14.052s10.045-13.026 12.924-20.732c5.788-15.22 5.303-32.111-1.345-46.957s-18.917-26.431-34.106-32.207zM660.481 960c-115.939-0.003-229.837-30.524-330.243-88.496s-183.783-141.352-241.752-241.76c-57.969-100.408-88.487-214.306-88.486-330.246s30.52-229.838 88.49-330.245c8.759-15.24 23.213-26.376 40.183-30.96 16.97-4.586 35.065-2.237 50.305 6.521 15.24 8.759 26.377 23.213 30.961 40.184 4.582 16.97 2.237 35.065-6.522 50.305-46.8 80.176-71.421 171.363-71.334 264.199 0.032 81.031 18.699 160.97 54.559 233.634s87.951 136.108 152.246 185.425c64.296 49.317 139.071 83.187 218.547 98.989s161.521 13.114 239.791-7.855c78.27-20.97 150.669-59.66 211.599-113.080 60.927-53.419 108.758-120.136 139.785-194.991s44.421-155.845 39.148-236.704c-5.274-80.86-29.071-159.423-69.55-229.617-4.372-7.539-7.199-15.867-8.335-24.504s-0.553-17.415 1.72-25.826c2.273-8.41 6.185-16.289 11.51-23.18 5.335-6.893 11.971-12.663 19.538-16.978 15.176-8.611 33.126-10.872 49.951-6.296 16.835 4.578 31.171 15.627 39.885 30.734 57.969 100.407 88.484 214.305 88.484 330.245s-30.515 229.838-88.484 330.246c-57.969 100.408-141.343 183.789-241.751 241.76-100.406 57.972-214.304 88.493-330.244 88.496z" />
<glyph unicode="&#xe915;" glyph-name="minus" horiz-adv-x="7168" d="M7168-64h-7168v1024h7168v-1024z" />
</font>
</defs>
</svg>
